<svg width="126" height="47" viewBox="0 0 126 47" fill="none" xmlns="http://www.w3.org/2000/svg">
<path d="M55.8119 20V5.45455H61.8204C62.9094 5.45455 63.8493 5.65104 64.64 6.04403C65.4355 6.43229 66.0487 6.991 66.4795 7.72017C66.9104 8.4446 67.1258 9.30398 67.1258 10.2983C67.1258 11.3068 66.9057 12.1638 66.4653 12.8693C66.025 13.5701 65.4 14.1051 64.5903 14.4744C63.7807 14.839 62.8219 15.0213 61.7139 15.0213H57.9142V12.2514H61.0605C61.5908 12.2514 62.0335 12.1828 62.3886 12.0455C62.7485 11.9034 63.0207 11.6903 63.2054 11.4062C63.39 11.1174 63.4824 10.7481 63.4824 10.2983C63.4824 9.84848 63.39 9.4768 63.2054 9.18324C63.0207 8.88494 62.7485 8.66241 62.3886 8.51562C62.0288 8.36411 61.5861 8.28835 61.0605 8.28835H59.3275V20H55.8119ZM64.0008 13.3523L67.623 20H63.7878L60.2366 13.3523H64.0008ZM69.0541 20V9.09091H72.5271V20H69.0541ZM70.7942 7.8196C70.3065 7.8196 69.8874 7.65862 69.5371 7.33665C69.1867 7.00994 69.0115 6.61695 69.0115 6.15767C69.0115 5.70312 69.1867 5.31487 69.5371 4.9929C69.8874 4.66619 70.3065 4.50284 70.7942 4.50284C71.2866 4.50284 71.7056 4.66619 72.0513 4.9929C72.4016 5.31487 72.5768 5.70312 72.5768 6.15767C72.5768 6.61695 72.4016 7.00994 72.0513 7.33665C71.7056 7.65862 71.2866 7.8196 70.7942 7.8196ZM74.7377 20V5.45455H78.2107V10.9588H78.2817C78.4238 10.6274 78.625 10.3078 78.8854 10C79.1506 9.69223 79.4867 9.44129 79.8939 9.24716C80.3059 9.0483 80.7983 8.94886 81.3712 8.94886C82.1288 8.94886 82.8367 9.14773 83.4948 9.54545C84.1577 9.94318 84.6927 10.5563 85.0999 11.3849C85.5071 12.2135 85.7107 13.2694 85.7107 14.5526C85.7107 15.7884 85.5142 16.8229 85.1212 17.6562C84.733 18.4896 84.2074 19.1146 83.5445 19.5312C82.8864 19.9479 82.1548 20.1562 81.3499 20.1562C80.8007 20.1562 80.3248 20.0663 79.9224 19.8864C79.5199 19.7064 79.1813 19.4697 78.9067 19.1761C78.6368 18.8826 78.4285 18.5677 78.2817 18.2315H78.1752V20H74.7377ZM78.1397 14.5455C78.1397 15.1326 78.2178 15.6439 78.3741 16.0795C78.535 16.5152 78.7647 16.8537 79.063 17.0952C79.366 17.3319 79.7282 17.4503 80.1496 17.4503C80.5758 17.4503 80.938 17.3319 81.2363 17.0952C81.5346 16.8537 81.7595 16.5152 81.911 16.0795C82.0672 15.6439 82.1454 15.1326 82.1454 14.5455C82.1454 13.9583 82.0672 13.4493 81.911 13.0185C81.7595 12.5876 81.5346 12.2538 81.2363 12.017C80.9427 11.7803 80.5805 11.6619 80.1496 11.6619C79.7235 11.6619 79.3613 11.7779 79.063 12.0099C78.7647 12.242 78.535 12.5734 78.3741 13.0043C78.2178 13.4351 78.1397 13.9489 78.1397 14.5455ZM92.6301 20.206C91.489 20.206 90.5041 19.9811 89.6755 19.5312C88.8517 19.0767 88.2172 18.4304 87.7721 17.5923C87.3318 16.7495 87.1116 15.7481 87.1116 14.5881C87.1116 13.4612 87.3342 12.4763 87.7792 11.6335C88.2243 10.786 88.8517 10.1278 89.6613 9.65909C90.471 9.18561 91.4251 8.94886 92.5236 8.94886C93.3001 8.94886 94.0103 9.0696 94.6542 9.31108C95.2982 9.55256 95.8545 9.91004 96.3233 10.3835C96.792 10.857 97.1566 11.4418 97.417 12.1378C97.6774 12.8291 97.8077 13.6222 97.8077 14.517V15.3835H88.3261V13.3665H94.5761C94.5714 12.9972 94.4838 12.6681 94.3133 12.3793C94.1429 12.0904 93.9085 11.8655 93.6102 11.7045C93.3166 11.5388 92.9781 11.456 92.5946 11.456C92.2063 11.456 91.8583 11.5436 91.5505 11.7188C91.2428 11.8892 90.9989 12.1236 90.819 12.4219C90.6391 12.7154 90.5444 13.0492 90.5349 13.4233V15.4759C90.5349 15.9209 90.6225 16.3116 90.7977 16.6477C90.9729 16.9792 91.2215 17.2372 91.5434 17.4219C91.8654 17.6065 92.2489 17.6989 92.694 17.6989C93.0018 17.6989 93.2811 17.6562 93.5321 17.571C93.783 17.4858 93.9985 17.3603 94.1784 17.1946C94.3583 17.0289 94.4933 16.8253 94.5832 16.5838L97.7721 16.6761C97.6396 17.3911 97.3484 18.0137 96.8986 18.544C96.4535 19.0696 95.8687 19.4792 95.1443 19.7727C94.4199 20.0616 93.5818 20.206 92.6301 20.206ZM99.5814 20V9.09091H103.054V20H99.5814ZM101.321 7.8196C100.834 7.8196 100.415 7.65862 100.064 7.33665C99.714 7.00994 99.5388 6.61695 99.5388 6.15767C99.5388 5.70312 99.714 5.31487 100.064 4.9929C100.415 4.66619 100.834 4.50284 101.321 4.50284C101.814 4.50284 102.233 4.66619 102.579 4.9929C102.929 5.31487 103.104 5.70312 103.104 6.15767C103.104 6.61695 102.929 7.00994 102.579 7.33665C102.233 7.65862 101.814 7.8196 101.321 7.8196ZM105.265 20V9.09091H108.639V11.0795H108.752C108.951 10.3598 109.275 9.82481 109.725 9.47443C110.175 9.11932 110.698 8.94176 111.295 8.94176C111.456 8.94176 111.622 8.9536 111.792 8.97727C111.962 8.99621 112.121 9.02699 112.268 9.0696V12.0881C112.102 12.0312 111.884 11.9863 111.614 11.9531C111.349 11.92 111.113 11.9034 110.904 11.9034C110.492 11.9034 110.121 11.9957 109.789 12.1804C109.462 12.3603 109.204 12.6136 109.015 12.9403C108.83 13.2623 108.738 13.6411 108.738 14.0767V20H105.265ZM116.348 20.1847C115.652 20.1847 115.034 20.0687 114.494 19.8366C113.959 19.5999 113.536 19.2448 113.223 18.7713C112.915 18.2931 112.761 17.6941 112.761 16.9744C112.761 16.3684 112.868 15.857 113.081 15.4403C113.294 15.0237 113.588 14.6851 113.962 14.4247C114.336 14.1643 114.767 13.9678 115.254 13.8352C115.742 13.6979 116.263 13.6056 116.817 13.5582C117.437 13.5014 117.937 13.4422 118.315 13.3807C118.694 13.3144 118.969 13.2221 119.139 13.1037C119.315 12.9806 119.402 12.8078 119.402 12.5852V12.5497C119.402 12.1851 119.277 11.9034 119.026 11.7045C118.775 11.5057 118.436 11.4062 118.01 11.4062C117.551 11.4062 117.181 11.5057 116.902 11.7045C116.623 11.9034 116.445 12.178 116.369 12.5284L113.166 12.4148C113.261 11.7519 113.505 11.16 113.898 10.6392C114.296 10.1136 114.84 9.7017 115.531 9.40341C116.227 9.10038 117.063 8.94886 118.038 8.94886C118.734 8.94886 119.376 9.03172 119.963 9.19744C120.55 9.35843 121.062 9.59517 121.497 9.90767C121.933 10.2154 122.269 10.5942 122.506 11.044C122.747 11.4938 122.868 12.0076 122.868 12.5852V20H119.601V18.4801H119.516C119.322 18.8494 119.073 19.1619 118.77 19.4176C118.472 19.6733 118.119 19.8651 117.712 19.9929C117.309 20.1207 116.855 20.1847 116.348 20.1847ZM117.421 17.9119C117.795 17.9119 118.131 17.8362 118.429 17.6847C118.732 17.5331 118.974 17.3248 119.154 17.0597C119.333 16.7898 119.423 16.4773 119.423 16.1222V15.0852C119.324 15.1373 119.203 15.1847 119.061 15.2273C118.924 15.2699 118.772 15.3101 118.607 15.348C118.441 15.3859 118.27 15.419 118.095 15.4474C117.92 15.4759 117.752 15.5019 117.591 15.5256C117.264 15.5777 116.985 15.6581 116.753 15.767C116.526 15.8759 116.351 16.018 116.227 16.1932C116.109 16.3636 116.05 16.5672 116.05 16.804C116.05 17.1638 116.178 17.4384 116.433 17.6278C116.694 17.8172 117.023 17.9119 117.421 17.9119ZM58.9582 44H55.1798L60.0875 29.4545H64.7679L69.6755 44H65.8971L62.4809 33.1193H62.3673L58.9582 44ZM58.454 38.2756H66.3517V40.946H58.454V38.2756ZM74.7146 29.4545V44H71.2416V29.4545H74.7146ZM82.0246 44.206C80.8835 44.206 79.8987 43.9811 79.0701 43.5312C78.2462 43.0767 77.6117 42.4304 77.1667 41.5923C76.7263 40.7495 76.5062 39.7481 76.5062 38.5881C76.5062 37.4612 76.7287 36.4763 77.1738 35.6335C77.6188 34.786 78.2462 34.1278 79.0559 33.6591C79.8655 33.1856 80.8196 32.9489 81.9181 32.9489C82.6946 32.9489 83.4048 33.0696 84.0488 33.3111C84.6927 33.5526 85.2491 33.91 85.7178 34.3835C86.1866 34.857 86.5511 35.4418 86.8116 36.1378C87.072 36.8291 87.2022 37.6222 87.2022 38.517V39.3835H77.7206V37.3665H83.9706C83.9659 36.9972 83.8783 36.6681 83.7079 36.3793C83.5374 36.0904 83.303 35.8655 83.0047 35.7045C82.7112 35.5388 82.3726 35.456 81.9891 35.456C81.6009 35.456 81.2528 35.5436 80.9451 35.7188C80.6373 35.8892 80.3935 36.1236 80.2135 36.4219C80.0336 36.7154 79.9389 37.0492 79.9295 37.4233V39.4759C79.9295 39.9209 80.017 40.3116 80.1922 40.6477C80.3674 40.9792 80.616 41.2372 80.938 41.4219C81.2599 41.6065 81.6435 41.6989 82.0885 41.6989C82.3963 41.6989 82.6757 41.6562 82.9266 41.571C83.1776 41.4858 83.393 41.3603 83.5729 41.1946C83.7528 41.0289 83.8878 40.8253 83.9778 40.5838L87.1667 40.6761C87.0341 41.3911 86.7429 42.0137 86.2931 42.544C85.848 43.0696 85.2633 43.4792 84.5388 43.7727C83.8144 44.0616 82.9763 44.206 82.0246 44.206ZM88.976 44V33.0909H92.3496V35.0795H92.4632C92.6621 34.3598 92.9864 33.8248 93.4362 33.4744C93.886 33.1193 94.4092 32.9418 95.0058 32.9418C95.1668 32.9418 95.3325 32.9536 95.503 32.9773C95.6734 32.9962 95.832 33.027 95.9788 33.0696V36.0881C95.8131 36.0312 95.5953 35.9863 95.3254 35.9531C95.0603 35.92 94.8235 35.9034 94.6152 35.9034C94.2032 35.9034 93.8316 35.9957 93.5001 36.1804C93.1734 36.3603 92.9154 36.6136 92.726 36.9403C92.5413 37.2623 92.449 37.6411 92.449 38.0767V44H88.976ZM104.059 33.0909V35.6477H97.1773V33.0909H104.059ZM98.6191 30.4773H102.092V40.5696C102.092 40.7827 102.125 40.9555 102.192 41.0881C102.263 41.2159 102.364 41.3082 102.497 41.3651C102.63 41.4171 102.788 41.4432 102.973 41.4432C103.105 41.4432 103.245 41.4313 103.392 41.4077C103.543 41.3793 103.657 41.3556 103.733 41.3366L104.258 43.8438C104.093 43.8911 103.858 43.9503 103.555 44.0213C103.257 44.0923 102.899 44.1373 102.483 44.1562C101.668 44.1941 100.97 44.0994 100.388 43.8722C99.8099 43.6402 99.3672 43.2803 99.0594 42.7926C98.7564 42.3049 98.6096 41.6918 98.6191 40.9531V30.4773Z" fill="#87ACF1"/>
<path d="M21.9904 0.127485C22.3041 0.270714 22.6109 0.422604 22.9179 0.577469C23.1529 0.691991 23.3881 0.8061 23.6236 0.919821C23.8013 1.00572 23.8013 1.00572 23.9825 1.09335C28.919 3.439 34.4656 5.2308 39.9425 6.10755C40.0657 6.12764 40.1889 6.14772 40.3158 6.16842C40.5508 6.20614 40.7861 6.24217 41.0218 6.27621C41.637 6.3743 42.0122 6.45273 42.4047 6.92964C42.6218 7.22596 42.6411 7.31069 42.6549 7.65088C42.6608 7.78398 42.6608 7.78398 42.6668 7.91977C42.6699 8.01615 42.6731 8.11254 42.6763 8.21184C42.6802 8.31287 42.6841 8.41389 42.6881 8.51798C42.7287 9.65889 42.7334 10.7998 42.7338 11.9412C42.7342 12.1707 42.7345 12.4002 42.7349 12.6297C42.7355 13.1072 42.7357 13.5847 42.7356 14.0622C42.7356 14.5454 42.7363 15.0287 42.7378 15.512C42.7607 23.4737 41.8405 30.8655 36.156 37.2465C35.9159 37.5215 35.6901 37.8048 35.4673 38.0915C35.4252 38.1351 35.3831 38.1787 35.3398 38.2237C35.2712 38.2237 35.2027 38.2237 35.132 38.2237C35.1046 38.2797 35.0771 38.3358 35.0488 38.3936C34.9197 38.6094 34.7888 38.7412 34.5931 38.9091C34.3264 39.1438 34.0793 39.384 33.8398 39.6418C33.5387 39.959 33.2184 40.2326 32.867 40.5031C32.6128 40.702 32.3701 40.9103 32.1256 41.1191C31.0621 42.0019 29.8867 42.7909 28.6905 43.5181C28.6335 43.5533 28.5764 43.5885 28.5176 43.6248C26.7816 44.6921 24.9418 45.6068 23.0802 46.4785C22.9891 46.5222 22.898 46.5659 22.8042 46.6109C22.0914 46.9379 21.493 47.1225 20.7097 46.9073C20.5789 46.8532 20.4491 46.7968 20.3205 46.7385C20.2494 46.7082 20.1783 46.6779 20.1051 46.6467C19.8835 46.5513 19.6637 46.4531 19.4439 46.3545C19.3093 46.2957 19.1747 46.2369 19.0401 46.1783C17.0599 45.3047 15.1757 44.3121 13.3917 43.1398C13.3189 43.0923 13.2462 43.0448 13.1712 42.9959C13.1061 42.9531 13.041 42.9103 12.974 42.8662C12.7821 42.7451 12.7821 42.7451 12.4829 42.6672C12.307 42.5122 12.1344 42.3541 11.9634 42.1945C11.7358 42.0071 11.5024 41.826 11.2686 41.645C11.2049 41.5953 11.1411 41.5456 11.0754 41.4944C10.7028 41.2053 10.3242 40.9257 9.93747 40.6523C9.56905 40.3886 9.2648 40.1148 8.97685 39.7785C8.83323 39.6156 8.83323 39.6156 8.53489 39.4527C8.53489 39.3903 8.53489 39.3279 8.53489 39.2637C8.46632 39.2637 8.39775 39.2637 8.3271 39.2637C8.11931 39.0746 8.11931 39.0746 7.93709 38.8659C7.76714 38.6736 7.59573 38.4889 7.41518 38.3053C5.6762 36.5329 4.24685 34.5779 3.11839 32.436C2.9852 32.1864 2.84373 31.9407 2.70378 31.6942C2.29175 30.9454 1.89781 30.1514 1.67781 29.3365C1.63608 29.2116 1.59327 29.0869 1.54957 28.9624C0.89009 27.0523 0.491037 25.1536 0.249815 23.1667C0.241742 23.1008 0.23367 23.0349 0.225353 22.9669C0.203447 22.7862 0.182246 22.6054 0.161088 22.4246C0.136669 22.1574 0.136669 22.1574 0.0154928 21.9621C0.00568022 21.8186 0.00237093 21.6747 0.00229981 21.5309C0.00200684 21.44 0.00171388 21.3491 0.00141203 21.2554C0.00162234 21.1552 0.00183265 21.0549 0.00204933 20.9517C0.00177624 20.7936 0.00177624 20.7937 0.00149764 20.6324C0.00103754 20.281 0.00134486 19.9296 0.00169422 19.5782C0.00162416 19.332 0.00152327 19.0859 0.00139301 18.8397C0.00120342 18.3206 0.00145367 17.8015 0.00194787 17.2824C0.00244336 16.756 0.0024548 16.2297 0.00194787 15.7033C-0.00266785 10.7353 -0.00266825 10.7353 0.0437526 8.84105C0.0470384 8.70356 0.049871 8.56607 0.0521959 8.42857C0.0555032 8.24595 0.0610236 8.06336 0.0666794 7.88078C0.0693171 7.78246 0.0719548 7.68415 0.0746725 7.58286C0.138889 7.18786 0.301281 6.868 0.600105 6.57457C0.975703 6.39534 1.3632 6.34288 1.77846 6.27632C1.97088 6.24345 2.16328 6.21051 2.35567 6.17753C2.45689 6.16052 2.55811 6.14352 2.6624 6.12599C5.81247 5.59289 8.87184 4.872 11.8595 3.80969C11.9505 3.77774 12.0415 3.7458 12.1352 3.71288C14.7849 2.7767 17.4498 1.70017 19.9638 0.491419C20.0298 0.460036 20.0958 0.428654 20.1638 0.396321C20.3374 0.313098 20.51 0.228031 20.6825 0.142788C21.1646 -0.0303704 21.5034 -0.0584172 21.9904 0.127485ZM20.7211 2.718C20.6043 2.77388 20.4875 2.82976 20.3673 2.88733C20.3049 2.91814 20.2425 2.94895 20.1783 2.9807C19.8365 3.14904 19.4907 3.31023 19.1448 3.4714C19.0703 3.50616 18.9959 3.54091 18.9192 3.57672C17.96 4.02018 16.9751 4.41087 15.9894 4.8024C15.9009 4.83775 15.8125 4.87309 15.7214 4.90951C13.9859 5.60271 12.2343 6.24356 10.431 6.776C10.3577 6.79773 10.2845 6.81945 10.209 6.84184C7.7248 7.57312 5.16635 8.05372 2.61287 8.53688C2.64716 8.59928 2.68144 8.66168 2.71676 8.72597C2.66534 8.77277 2.66534 8.77277 2.61287 8.82052C2.58666 9.08227 2.56796 9.34143 2.55443 9.60383C2.55002 9.6871 2.54561 9.77038 2.54106 9.85618C2.48569 11.0369 2.50179 12.2186 2.50897 13.4C2.51174 13.8647 2.51381 14.3294 2.51547 14.7941C2.51676 14.9522 2.51676 14.9522 2.51808 15.1134C2.51842 15.2114 2.51877 15.3094 2.51912 15.4103C2.51966 15.4959 2.52021 15.5816 2.52077 15.6698C2.5087 15.917 2.46044 16.1421 2.40508 16.384C2.39489 16.6549 2.39033 16.9228 2.39209 17.1936C2.39252 17.2756 2.39295 17.3577 2.39339 17.4422C2.41912 20.3254 2.58766 23.1993 3.23624 26.0275C3.31554 26.0142 3.39484 26.0008 3.47655 25.9871C8.27411 25.188 14.203 24.6344 18.5088 27.2566C18.5656 27.3087 18.6224 27.3609 18.6809 27.4146C18.8124 27.5624 18.8124 27.5624 19.0283 27.5402C19.0976 27.6663 19.1668 27.7923 19.2361 27.9184C19.2918 28.0003 19.3475 28.0822 19.4049 28.1666C19.6619 28.7406 19.6385 29.2937 19.3854 29.8684C18.9322 30.6819 18.2405 31.1608 17.4447 31.6916C16.8814 32.074 16.8814 32.074 16.5908 32.6426C16.5605 32.9952 16.6192 33.1884 16.8465 33.4728C17.3143 33.7921 17.9736 34.1444 18.557 34.2371C18.4864 34.2692 18.6256 34.2059 18.557 34.2371C18.6127 34.3071 18.6127 34.1885 18.6127 34.2528C18.8377 34.3182 19.0628 34.3831 19.288 34.4478C19.3975 34.4794 19.3975 34.4794 19.5093 34.5116C19.9625 34.6409 20.417 34.7627 20.8749 34.8777C25.6094 36.0737 25.6094 36.0737 26.6877 37.7447C27.5042 39.1797 27.2064 40.3978 26.8204 41.9109C28.217 41.2822 29.3886 40.2787 30.5606 39.3582C30.6225 39.3103 30.6844 39.2624 30.7482 39.213C31.3391 38.7508 31.8927 38.2579 32.4437 37.7569C32.5339 37.676 32.624 37.5951 32.7169 37.5118C33.4919 36.8427 33.4919 36.8427 34.0931 36.0492C34.0961 35.7727 34.0961 35.7727 33.8853 35.5764C33.039 35.1414 32.0378 34.9525 31.0801 35.1037C30.6334 35.2261 30.1959 35.3702 29.7637 35.53C29.0592 35.7828 28.4164 35.8699 27.6731 35.6987C27.591 35.6642 27.5089 35.6297 27.4243 35.5942C27.2712 35.5315 27.2712 35.5315 27.1151 35.4675C26.7812 35.3226 26.4491 35.1742 26.1167 35.0265C26.0094 34.9792 25.9022 34.9318 25.7917 34.883C25.5742 34.7865 25.3572 34.689 25.1408 34.5905C24.99 34.5231 24.99 34.5231 24.8363 34.4545C24.7457 34.4134 24.2655 34.2794 24.1722 34.2371C24.1722 34.1435 24.1722 34.2371 24.0153 34.0637C24.0863 34.0652 24.1574 34.0667 24.2306 34.0682C26.1241 34.1026 27.5735 33.9917 29.3172 33.3002C30.9628 32.6529 32.3154 32.628 33.9892 33.2128C34.2104 33.2895 34.4318 33.3659 34.6532 33.4421C34.8012 33.4933 34.949 33.5451 35.0964 33.5976C35.4011 33.7043 35.6336 33.7801 35.9632 33.7801C36.1606 33.4692 36.3574 33.1578 36.5541 32.8465C36.6092 32.7597 36.6643 32.6729 36.7211 32.5835C37.3937 31.6698 37.3937 31.6698 37.7294 30.6602C37.5761 30.6512 37.5761 30.6512 37.4197 30.6421C36.2218 30.5527 35.1597 30.2612 34.0326 29.8913C32.1867 29.2885 30.8201 29.3819 29.0091 30.0549C28.9416 30.0799 28.8741 30.1049 28.8045 30.1307C28.618 30.2007 28.4324 30.2729 28.247 30.3451C27.2925 30.6552 26.3736 30.6922 25.3659 30.6897C25.1779 30.692 25.1779 30.692 24.986 30.6943C24.0123 30.6948 23.0034 30.6179 22.249 29.9984C22.0415 29.6679 21.9308 29.3695 21.9503 28.9879C22.2109 28.3612 22.2109 28.3612 22.5607 28.202C22.9772 28.1631 23.3089 28.2295 23.7036 28.3379C25.6821 28.8457 27.3368 28.3774 29.1685 27.6897C31.4341 26.8499 33.1988 27.2805 35.4286 27.9775C35.5175 28.0052 35.6063 28.0328 35.6978 28.0613C35.7765 28.0861 35.8553 28.111 35.9365 28.1365C36.1861 28.2063 36.4337 28.2536 36.6905 28.2966C36.7933 28.3141 36.8962 28.3317 37.0021 28.3497C37.5858 28.4255 38.1804 28.3983 38.7684 28.3911C40.2342 24.2253 40.26 19.8048 40.2432 15.4762C40.2421 15.1095 40.2421 14.7428 40.2422 14.3761C40.2421 12.807 40.2415 11.237 40.1892 9.66846C40.1858 9.52656 40.1858 9.52656 40.1824 9.38179C40.177 9.25523 40.177 9.25523 40.1715 9.12612C40.1676 9.01908 40.1676 9.01908 40.1636 8.90988C40.1068 8.67588 40.0117 8.58951 39.8073 8.44234C39.5584 8.37229 39.5584 8.37229 39.2728 8.33782C39.1634 8.32136 39.054 8.3049 38.9413 8.28794C38.8221 8.27065 38.7029 8.25335 38.58 8.23553C33.2593 7.39305 27.4435 5.61487 22.7815 3.10652C22.6327 3.0274 22.4836 2.94872 22.3343 2.87053C22.2724 2.83733 22.2106 2.80412 22.1468 2.76991C21.5763 2.51183 21.2961 2.4335 20.7211 2.718ZM3.96351 28.202C4.09874 28.8439 4.31009 29.4074 4.59986 30.0043C4.64153 30.091 4.6832 30.1778 4.72613 30.2671C5.93277 32.7558 7.48056 34.9638 9.46994 36.9946C9.54566 37.0725 9.54566 37.0725 9.6229 37.1519C10.7818 38.339 12.0422 39.3963 13.431 40.3568C13.6371 40.5007 13.8407 40.6471 14.0442 40.7941C14.808 41.342 15.5861 41.8555 16.4114 42.3245C16.4903 42.3702 16.5691 42.4158 16.6504 42.4628C16.7243 42.5037 16.7983 42.5446 16.8745 42.5867C16.9719 42.6411 16.9719 42.6411 17.0713 42.6966C17.3151 42.7799 17.4365 42.7486 17.6777 42.6672C17.9775 42.4709 18.2399 42.2355 18.5088 42.0054C18.588 41.9395 18.6671 41.8736 18.7487 41.8056C19.4918 41.1636 20.1193 40.4677 20.1971 39.5118C20.1601 39.024 19.9783 38.7404 19.6517 38.3596C18.8633 37.7767 17.8177 37.5283 16.866 37.2428C15.6178 36.8582 14.4109 36.4694 13.3814 35.6957C13.2117 35.5678 13.2117 35.5678 12.9934 35.4897C12.7423 35.3605 12.6957 35.2488 12.5868 35.0092C12.5513 34.9468 12.5158 34.8844 12.4792 34.8201C12.444 34.7577 12.4088 34.6953 12.3725 34.631C12.337 34.5686 12.3015 34.5062 12.265 34.4419C12.0023 33.912 11.9586 33.3899 12.1773 32.8435C12.9085 31.4154 14.1497 30.8323 15.6215 30.1328C15.7208 30.0845 15.8201 30.0363 15.9224 29.9865C16.0126 29.9434 16.1027 29.9002 16.1956 29.8558C16.4478 29.7046 16.5876 29.5714 16.7426 29.3365C16.753 29.0883 16.753 29.0883 16.6387 28.8638C13.5667 26.6489 7.41069 27.4665 3.96351 28.202ZM34.0931 35.7655C34.197 35.9546 34.197 35.9546 34.197 35.9546L34.0931 35.7655Z" fill="#87ACF1"/>
<path d="M27.0877 7.76087C27.1785 7.82978 27.2693 7.89869 27.3629 7.96969C29.078 9.32199 30.1375 11.1789 30.4229 13.2413C30.4573 13.3047 30.4917 13.3682 30.5272 13.4335C30.284 17.7391 27.2279 21.4883 24.3175 24.6929C24.1099 24.9218 23.9053 25.1525 23.7019 25.3847C23.6049 25.4949 23.6049 25.4949 23.5059 25.6074C23.3778 25.7528 23.2501 25.8986 23.1228 26.0446C22.8063 26.4022 22.5057 26.7323 22.0848 26.9903C21.6773 27.0264 21.4538 26.9666 21.1329 26.7307C20.5272 26.1886 20.0037 25.5795 19.4791 24.9712C19.3791 24.8575 19.2789 24.744 19.1786 24.6305C18.5294 23.8933 17.913 23.1414 17.3234 22.3629C17.1759 22.1695 17.0263 21.9777 16.8763 21.7859C15.9612 20.6123 15.1624 19.4075 14.4241 18.1327C14.3789 18.0552 14.3336 17.9777 14.287 17.8979C14.076 17.5274 13.928 17.2142 13.8508 16.7987C13.782 16.767 13.7133 16.7352 13.6424 16.7025C12.9498 14.4986 13.108 12.2219 14.2547 10.1826C14.6845 9.49057 15.2046 8.88681 15.8312 8.33775C15.8831 8.28669 15.9351 8.23563 15.9887 8.18302C16.7614 7.43201 17.841 6.64338 18.958 6.41481C19.0797 6.38507 19.2014 6.35532 19.3268 6.32468C22.1013 5.65332 24.8649 5.97219 27.0877 7.76087ZM16.9777 10.453C15.8911 11.7215 15.5494 13.1983 15.7269 14.7796C16.0284 17.0252 17.7317 19.0766 19.1664 20.8369C19.24 20.9282 19.3137 21.0196 19.3895 21.1137C19.8466 21.6791 20.3105 22.2395 20.7776 22.7979C21.113 23.1992 21.4439 23.6034 21.7721 24.0097C22.3283 23.5187 22.7701 22.9412 23.2313 22.3752C23.3157 22.2718 23.3157 22.2718 23.4019 22.1663C26.8907 18.0736 26.8907 18.0736 27.9215 13.1451C27.6308 11.6017 26.7285 10.3098 25.381 9.37133C22.5514 7.57033 19.2157 8.06554 16.9777 10.453Z" fill="#87ACF1"/>
<path d="M22.6733 10.0839C22.9878 10.2794 23.205 10.4346 23.3875 10.708C23.3992 10.8716 23.4031 11.0355 23.4034 11.1994C23.4036 11.301 23.4039 11.4026 23.4042 11.5074C23.4033 11.6716 23.4033 11.6716 23.4024 11.8391C23.4016 12.0064 23.4016 12.0064 23.4007 12.1771C23.3978 12.5195 23.3931 12.8619 23.3875 13.2042C23.386 13.3066 23.3846 13.4089 23.383 13.5143C23.3776 13.7937 23.3685 14.0728 23.3578 14.3521C23.3561 14.4356 23.3544 14.5191 23.3527 14.6051C23.3283 15.0992 23.2383 15.4008 22.7923 15.7896C22.3079 16.0315 21.932 16.0231 21.3638 15.9679C20.9546 15.8454 20.9546 15.8454 20.6496 15.6113C20.3868 15.0109 20.3735 14.3772 20.3715 13.7513C20.3707 13.6626 20.3699 13.5739 20.3691 13.4825C20.3679 13.2967 20.3673 13.1108 20.3674 12.9249C20.3669 12.6407 20.3625 12.3565 20.358 12.0723C20.3573 11.8909 20.3568 11.7095 20.3566 11.5281C20.3549 11.4435 20.3532 11.3589 20.3514 11.2717C20.3549 10.8937 20.3653 10.6767 20.6288 10.3468C21.2364 9.93901 21.925 9.94835 22.6733 10.0839Z" fill="#87ACF1"/>
<path d="M22.3282 17.0317C22.8355 17.2907 23.1532 17.5501 23.3747 18.0801C23.4383 18.5808 23.4113 18.8274 23.1712 19.2741C22.6578 19.9028 22.6578 19.9028 22.211 19.989C21.6784 20.0297 21.3563 19.9682 20.9401 19.6236C20.6681 19.3685 20.4823 19.1306 20.3514 18.7791C20.3685 18.2173 20.5167 17.8116 20.8747 17.3812C21.3437 17.0053 21.7373 16.9524 22.3282 17.0317Z" fill="#87ACF1"/>
</svg>
